<?xml version="1.0" encoding="utf-8"?>
<!-- Generator: Adobe Illustrator 21.0.2, SVG Export Plug-In . SVG Version: 6.00 Build 0)  -->
<svg version="1.1" id="Layer_1" xmlns="http://www.w3.org/2000/svg" xmlns:xlink="http://www.w3.org/1999/xlink" x="0px" y="0px"
	 viewBox="0 0 100 100" style="enable-background:new 0 0 100 100;" xml:space="preserve">
<path class="car-icons" d="M74,35h4c3.3,0,6-2.7,6-6V11c0-3.3-2.7-6-6-6h-4c-3.3,0-6,2.7-6,6v7H58v-4c0-1.1-0.9-2-2-2H44c-1.1,0-2,0.9-2,2v4H32v-7
	c0-3.3-2.7-6-6-6h-4c-3.3,0-6,2.7-6,6v18c0,3.3,2.7,6,6,6h4c3.3,0,6-2.7,6-6v-7h10v4c0,1.1,0.9,2,2,2h4v8h-6c-1.1,0-2,0.9-2,2v24
	c0,1.1,0.9,2,2,2h6v8h-4c-1.1,0-2,0.9-2,2v4H32v-7c0-3.3-2.7-6-6-6h-4c-3.3,0-6,2.7-6,6v18c0,3.3,2.7,6,6,6h4c3.3,0,6-2.7,6-6v-7h10
	v4c0,1.1,0.9,2,2,2h12c1.1,0,2-0.9,2-2v-4h10v7c0,3.3,2.7,6,6,6h4c3.3,0,6-2.7,6-6V71c0-3.3-2.7-6-6-6h-4c-3.3,0-6,2.7-6,6v7H58v-4
	c0-1.1-0.9-2-2-2h-4v-8h6c1.1,0,2-0.9,2-2V38c0-1.1-0.9-2-2-2h-6v-8h4c1.1,0,2-0.9,2-2v-4h10v7C68,32.3,70.7,35,74,35z M28,29
	c0,1.1-0.9,2-2,2h-4c-1.1,0-2-0.9-2-2V11c0-1.1,0.9-2,2-2h4c1.1,0,2,0.9,2,2V29z M28,89c0,1.1-0.9,2-2,2h-4c-1.1,0-2-0.9-2-2V71
	c0-1.1,0.9-2,2-2h4c1.1,0,2,0.9,2,2V89z M72,71c0-1.1,0.9-2,2-2h4c1.1,0,2,0.9,2,2v18c0,1.1-0.9,2-2,2h-4c-1.1,0-2-0.9-2-2V71z
	 M54,84h-8v-8h8V84z M56,60H44V40h12V60z M54,24h-8v-8h8V24z M72,11c0-1.1,0.9-2,2-2h4c1.1,0,2,0.9,2,2v18c0,1.1-0.9,2-2,2h-4
	c-1.1,0-2-0.9-2-2V11z"/>
</svg>
